<svg width="27" height="27" viewBox="0 0 27 27" fill="none" xmlns="http://www.w3.org/2000/svg">
<path d="M4.96758 2.32558C4.80938 2.35195 4.50879 2.44687 4.29258 2.53652C3.04805 3.05332 2.21484 4.30312 2.21484 5.6373C2.21484 6.12246 2.36777 7.13496 2.58398 8.11055C4.07109 14.7656 8.68535 20.3555 14.9396 23.066C16.4479 23.7199 18.1248 24.2209 19.8387 24.532C20.693 24.685 21.7213 24.6955 22.1695 24.5584C23.24 24.2262 24.0311 23.5248 24.4107 22.5703C24.6691 21.9164 24.6902 21.6791 24.6691 19.4062L24.6533 17.3232L24.4951 16.875C24.2104 16.0471 23.6619 15.3826 22.9184 14.9766C22.5334 14.7604 22.2961 14.6918 21.3311 14.502C21.0146 14.4334 20.4293 14.2805 20.0391 14.1592C19.1742 13.885 19.0107 13.8586 18.5572 13.9219C17.8031 14.0273 17.1967 14.4703 16.8275 15.1875C16.7063 15.4195 16.5902 15.6094 16.5744 15.6094C16.5111 15.6094 15.8045 15.177 15.4248 14.9027C13.848 13.7848 12.5033 12.3293 11.5436 10.6998L11.4012 10.452L11.8916 10.1303C12.6193 9.65566 12.9305 9.23379 13.0781 8.5166C13.1678 8.09473 13.1203 7.7625 12.8408 6.88711C12.7143 6.47578 12.535 5.77441 12.4453 5.32617C12.2344 4.27676 12.0234 3.84433 11.4434 3.26953C11.032 2.8582 10.6682 2.63144 10.0723 2.42051C9.73477 2.29922 9.6873 2.29394 7.48828 2.28867C6.2543 2.27812 5.12051 2.29922 4.96758 2.32558ZM9.51855 4.68808C9.78223 4.8041 10.0512 5.07832 10.125 5.29453C10.1514 5.38418 10.2357 5.77441 10.3096 6.16465C10.3887 6.55488 10.5416 7.15078 10.6471 7.48301C10.7578 7.82051 10.8369 8.1 10.8158 8.11055C10.4467 8.2582 9.16523 8.89629 9.03867 8.99121C8.79609 9.17578 8.64844 9.51328 8.64844 9.87715C8.64844 10.1461 8.68535 10.2568 9.00703 10.8791C9.75059 12.324 10.6049 13.5316 11.6807 14.6602C13.0043 16.0471 14.3965 17.0965 16.0576 17.9508C16.6693 18.2725 16.7537 18.2988 17.0543 18.2988C17.4445 18.2988 17.7346 18.1723 17.9613 17.9191C18.051 17.8189 18.283 17.3654 18.4834 16.9066C18.7734 16.2527 18.8631 16.0893 18.9264 16.1156C19.285 16.2633 20.4979 16.5744 21.4682 16.7695C21.8162 16.8381 22.101 17.049 22.2645 17.3654C22.3752 17.5816 22.3805 17.6555 22.4016 19.5012C22.4227 21.6053 22.4121 21.7318 22.1326 22.0693C21.8004 22.4754 21.426 22.5387 20.3766 22.3541C12.8777 21.0568 6.89766 15.5355 5.03613 8.1791C4.89375 7.6043 4.66699 6.40723 4.61426 5.93262C4.55625 5.37891 4.78828 4.92539 5.2418 4.71445C5.51074 4.58789 5.52129 4.58789 7.40918 4.58789C9.13359 4.58789 9.32871 4.59844 9.51855 4.68808Z" fill="#E7C463"/>
<path d="M20.25 2.51015C19.8493 2.7369 19.67 3.04276 19.67 3.51737C19.67 3.91288 19.7649 4.0869 20.2817 4.62479L20.7194 5.08886L18.5678 5.11522L16.4215 5.14159L16.2 5.28925C15.6041 5.67948 15.4829 6.47577 15.9416 6.99257C16.2844 7.38807 16.2475 7.3828 18.6522 7.3828H20.8038L20.2922 7.89432C20.0127 8.17909 19.7491 8.48495 19.7016 8.57987C19.5276 8.92792 19.6225 9.56073 19.8967 9.85077C20.2395 10.2252 20.8776 10.3201 21.3047 10.0617C21.6422 9.86132 24.4952 6.98202 24.6006 6.73417C24.7114 6.46522 24.7008 6.00116 24.5795 5.75858C24.4266 5.46854 21.484 2.55233 21.2414 2.45214C20.9356 2.32558 20.5295 2.35194 20.25 2.51015Z" fill="#E7C463"/>
</svg>
