<svg width="32" height="32" viewBox="0 0 32 32" fill="none" xmlns="http://www.w3.org/2000/svg">
<path d="M16.0026 11.9998C14.9418 11.9998 13.9244 12.4213 13.1742 13.1714C12.4241 13.9216 12.0026 14.939 12.0026 15.9998C12.0026 17.0607 12.4241 18.0781 13.1742 18.8283C13.9244 19.5784 14.9418 19.9998 16.0026 19.9998C17.0635 19.9998 18.0809 19.5784 18.8311 18.8283C19.5812 18.0781 20.0026 17.0607 20.0026 15.9998C20.0026 14.939 19.5812 13.9216 18.8311 13.1714C18.0809 12.4213 17.0635 11.9998 16.0026 11.9998ZM16.0026 9.33317C17.7707 9.33317 19.4664 10.0355 20.7167 11.2858C21.9669 12.536 22.6693 14.2317 22.6693 15.9998C22.6693 17.7679 21.9669 19.4636 20.7167 20.7139C19.4664 21.9641 17.7707 22.6665 16.0026 22.6665C14.2345 22.6665 12.5388 21.9641 11.2886 20.7139C10.0383 19.4636 9.33597 17.7679 9.33597 15.9998C9.33597 14.2317 10.0383 12.536 11.2886 11.2858C12.5388 10.0355 14.2345 9.33317 16.0026 9.33317ZM24.6693 8.99984C24.6693 9.44186 24.4937 9.86579 24.1811 10.1783C23.8686 10.4909 23.4447 10.6665 23.0026 10.6665C22.5606 10.6665 22.1367 10.4909 21.8241 10.1783C21.5116 9.86579 21.336 9.44186 21.336 8.99984C21.336 8.55781 21.5116 8.13389 21.8241 7.82133C22.1367 7.50877 22.5606 7.33317 23.0026 7.33317C23.4447 7.33317 23.8686 7.50877 24.1811 7.82133C24.4937 8.13389 24.6693 8.55781 24.6693 8.99984ZM16.0026 5.33317C12.704 5.33317 12.1653 5.3425 10.6306 5.4105C9.5853 5.45984 8.88397 5.59984 8.2333 5.85317C7.68908 6.05366 7.19693 6.37402 6.7933 6.7905C6.37633 7.194 6.05552 7.68616 5.85464 8.2305C5.6013 8.88384 5.4613 9.58384 5.4133 10.6278C5.34397 12.0998 5.33464 12.6145 5.33464 15.9998C5.33464 19.2998 5.34397 19.8372 5.41197 21.3718C5.4613 22.4158 5.6013 23.1185 5.8533 23.7678C6.07997 24.3478 6.34664 24.7652 6.7893 25.2078C7.23864 25.6558 7.65597 25.9238 8.2293 26.1452C8.88797 26.3998 9.5893 26.5412 10.6293 26.5892C12.1013 26.6585 12.616 26.6665 16.0013 26.6665C19.3013 26.6665 19.8386 26.6572 21.3733 26.5892C22.416 26.5398 23.1173 26.3998 23.7693 26.1478C24.3135 25.9473 24.8057 25.627 25.2093 25.2105C25.6586 24.7625 25.9266 24.3452 26.148 23.7705C26.4013 23.1145 26.5426 22.4132 26.5906 21.3705C26.66 19.8998 26.668 19.3838 26.668 15.9998C26.668 12.7012 26.6586 12.1625 26.5906 10.6278C26.5413 9.58517 26.4 8.88117 26.148 8.2305C25.9475 7.68628 25.6271 7.19413 25.2106 6.7905C24.8071 6.37353 24.315 6.05272 23.7706 5.85184C23.1173 5.5985 22.416 5.4585 21.3733 5.4105C19.9026 5.34117 19.388 5.33317 16.0013 5.33317M16.0013 2.6665C19.624 2.6665 20.076 2.67984 21.4986 2.7465C22.9173 2.81317 23.8853 3.03584 24.7346 3.3665C25.6146 3.70517 26.356 4.16384 27.0973 4.90384C27.7756 5.57015 28.3002 6.37647 28.6346 7.2665C28.964 8.11584 29.188 9.08384 29.2546 10.5038C29.3173 11.9252 29.3346 12.3772 29.3346 15.9998C29.3346 19.6225 29.3213 20.0745 29.2546 21.4958C29.188 22.9172 28.964 23.8825 28.6346 24.7332C28.3002 25.6232 27.7756 26.4295 27.0973 27.0958C26.431 27.7741 25.6247 28.2987 24.7346 28.6332C23.8853 28.9625 22.9173 29.1865 21.4986 29.2532C20.076 29.3158 19.624 29.3332 16.0013 29.3332C12.3786 29.3332 11.9266 29.3198 10.504 29.2532C9.0853 29.1865 8.11863 28.9625 7.26797 28.6332C6.37793 28.2987 5.57161 27.7741 4.9053 27.0958C4.22704 26.4295 3.70239 25.6232 3.36797 24.7332C3.0373 23.8838 2.81464 22.9158 2.74797 21.4958C2.68397 20.0745 2.66797 19.6225 2.66797 15.9998C2.66797 12.3772 2.6813 11.9252 2.74797 10.5038C2.81464 9.0825 3.0373 8.11717 3.36797 7.2665C3.70239 6.37647 4.22704 5.57015 4.9053 4.90384C5.57161 4.22558 6.37793 3.70093 7.26797 3.3665C8.1173 3.03584 9.08397 2.81317 10.504 2.7465C11.928 2.68384 12.38 2.6665 16.0026 2.6665" fill="white"/>
</svg>
