<svg width="32" height="32" viewBox="0 0 32 32" fill="none" xmlns="http://www.w3.org/2000/svg">
<path fill-rule="evenodd" clip-rule="evenodd" d="M16.6779 11.728V13.9907C17.1517 13.2689 17.8048 12.6825 18.5733 12.2889C19.3418 11.8954 20.1993 11.708 21.0619 11.7453C25.6685 11.7453 26.6645 14.6253 26.6645 18.372V26H22.3979V19.2373C22.3979 17.624 22.0725 15.5493 19.5605 15.5493C17.1245 15.5493 16.7085 17.3053 16.7085 19.1173V26H12.4552V11.728H16.6779ZM9.59787 8.14133C9.59735 8.564 9.47206 8.97711 9.23771 9.32887C9.00337 9.68063 8.67039 9.95537 8.28054 10.1187C7.89084 10.2806 7.46177 10.323 7.04792 10.2404C6.63407 10.1578 6.25416 9.95387 5.95654 9.65467C5.65836 9.35528 5.45536 8.97441 5.37306 8.55996C5.29077 8.1455 5.33285 7.71597 5.49402 7.32537C5.65519 6.93477 5.92825 6.60054 6.27887 6.36472C6.62949 6.1289 7.042 6.002 7.46454 6C7.74537 6 8.02343 6.05544 8.28278 6.16315C8.54214 6.27086 8.77767 6.42872 8.97587 6.62766C9.17407 6.82661 9.33105 7.06273 9.43779 7.32249C9.54452 7.58224 9.59893 7.86051 9.59787 8.14133Z" fill="white"/>
<path d="M9.5987 11.7451H5.33203V25.9998H9.5987V11.7451Z" fill="white"/>
</svg>
